<svg width="503" height="160" viewBox="0 0 503 160" fill="none" xmlns="http://www.w3.org/2000/svg">
<path d="M101.507 0.0185547C101.483 0.0349274 100.742 0.100418 99.8554 0.149551C83.7427 1.11566 68.8706 7.87023 57.5594 19.3571C46.9009 30.1808 40.2785 44.3449 38.7961 59.4752C38.3369 64.1174 38.3691 69.2427 38.8686 73.7621C39.634 80.6067 41.5353 87.5087 44.3873 93.8211C51.8233 110.278 65.7367 123.034 82.5906 128.822C91.3399 131.835 100.548 132.908 109.845 132.007C125.128 130.525 139.509 123.509 150.192 112.325C164.25 97.6037 170.76 77.4219 168.004 57.0353C166.683 47.1941 163.098 37.6395 157.636 29.3621C156.105 27.045 154.631 25.0882 152.649 22.7303C151.497 21.3712 147.952 17.736 146.623 16.557C138.566 9.44221 129.463 4.57891 119.344 2.00809C114.437 0.763596 109.426 0.116806 103.924 0.0185547C102.619 -0.00601196 101.531 -0.00601196 101.507 0.0185547ZM106.985 5.47952C117.644 6.12632 127.642 9.49951 136.472 15.419C143.964 20.446 150.192 27.0696 154.897 34.995C159.013 41.9296 161.753 49.9041 162.808 57.9769C163.614 64.142 163.525 70.2334 162.526 76.2593C159.4 95.2457 147.525 111.67 130.631 120.389C115.001 128.454 96.7537 129.133 80.3993 122.256C78.7316 121.56 75.1224 119.726 73.4708 118.743C62.2805 112.095 53.5393 102.025 48.4557 89.9321C45.9985 84.07 44.5323 77.9868 43.8878 71.0193C43.7428 69.4719 43.7428 62.922 43.8878 61.3583C44.3712 56.0201 45.2493 51.6644 46.8042 46.9076C52.3228 29.9925 65.0438 16.3114 81.4224 9.66326C87.3358 7.26437 94.1435 5.75789 100.46 5.45496C101.765 5.38946 105.785 5.40584 106.985 5.47952Z" fill="white"/>
<path d="M74.5672 46.8014C74.543 46.8833 73.6165 50.0354 72.5048 53.8016C71.401 57.576 69.5803 63.7492 68.4685 67.5154C67.3648 71.2898 66.253 75.056 66.0113 75.8911C64.9237 79.5836 64.1986 81.655 63.6266 82.6784C63.1352 83.5544 62.2893 84.3159 61.532 84.5615L61.2258 84.6679V85.151V85.634H65.4151H69.6045V85.151C69.6045 84.6106 69.6609 84.6515 68.7988 84.5287C68.0576 84.4223 67.3648 84.1603 67.0667 83.8819C66.3739 83.2106 66.1402 81.9252 66.4222 80.2222C66.5269 79.5754 67.2842 76.6689 67.7998 74.9659C67.8401 74.8349 68.1221 74.8267 72.2953 74.8267H76.7424L77.3386 76.9309C78.6437 81.5977 78.6276 81.5404 78.684 82.4082C78.7243 83.1287 78.7082 83.2761 78.5632 83.6118C78.2731 84.2749 77.4353 84.6515 76.2268 84.6515H75.8079V85.1428V85.634H81.8502H87.8924V85.1428V84.6597L87.5541 84.5615C86.2328 84.2012 85.6769 83.3334 84.5652 79.8619C84.3154 79.0923 83.8965 77.7169 83.6306 76.7917C83.0989 74.9495 81.7938 70.4055 81.0445 67.8265C80.2711 65.1493 79.0546 60.941 77.4997 55.5455C76.6941 52.7536 75.7837 49.6178 75.4856 48.5862C75.0184 46.9651 74.9217 46.7031 74.7767 46.6786C74.6719 46.6622 74.5994 46.7113 74.5672 46.8014ZM72.4242 59.7047C72.4242 59.7292 73.7293 64.3633 75.115 69.2266C75.6306 71.036 76.0496 72.5588 76.0496 72.6079C76.0496 72.6734 74.97 72.698 72.2711 72.698H68.4927L68.6055 72.305C68.6699 72.0921 69.0163 70.9213 69.3708 69.7096C69.7334 68.4897 70.2731 66.6475 70.5793 65.6159C70.8774 64.5761 71.393 62.824 71.7152 61.7106C72.0375 60.5889 72.3275 59.6801 72.3678 59.6801C72.4 59.6801 72.4242 59.6883 72.4242 59.7047Z" fill="white"/>
<path d="M89.1003 48.0131V48.5453H89.769C90.1396 48.5453 90.623 48.6026 90.8486 48.6681C91.3964 48.8319 91.9362 49.3313 92.2423 49.9617C92.476 50.4448 92.4921 50.5512 92.5726 51.984C92.621 52.9665 92.6451 58.3538 92.629 67.3353L92.5968 81.1719L92.4196 81.8433C92.3229 82.2199 92.1376 82.7357 92.0087 82.9977C91.5575 83.9065 90.6149 84.5533 89.6159 84.6352L89.1003 84.6761V85.151V85.634H93.3702H97.6401V85.1592V84.6843L96.9956 84.5861C96.1174 84.4632 95.6341 84.2258 95.1507 83.7182C94.7318 83.2597 94.4498 82.7603 94.2081 82.0316C94.0631 81.5977 94.055 80.9591 94.0389 66.4347C94.0308 56.7654 94.055 51.3454 94.1034 51.4518C94.1436 51.5419 94.9734 54.432 95.9402 57.8789C97.4467 63.217 102.619 81.5158 103.505 84.627C103.779 85.6095 103.787 85.634 104.013 85.634C104.142 85.634 104.246 85.6177 104.246 85.6013C104.246 85.5767 104.577 84.3732 104.979 82.9158C105.672 80.4023 106.309 78.1017 107.549 73.5986C107.856 72.4933 108.436 70.3974 108.838 68.9318C109.241 67.4663 109.821 65.3703 110.127 64.265C110.434 63.1597 111.006 61.0801 111.408 59.6392C111.803 58.1982 112.48 55.7584 112.907 54.2109C113.326 52.6717 113.713 51.329 113.753 51.2226C113.793 51.1161 113.817 57.1338 113.809 66.6803L113.793 82.3182L113.608 82.834C113.141 84.1439 112.391 84.6516 110.917 84.6516H110.289V85.1428V85.634H116.855H123.421V85.151V84.6761L122.623 84.6352C121.672 84.5861 121.092 84.3486 120.649 83.8164C120.206 83.3006 120.053 82.8749 119.956 81.9497C119.852 80.8526 119.843 52.336 119.956 51.2717C120.061 50.2646 120.287 49.6752 120.754 49.2003C121.237 48.7172 121.745 48.5453 122.703 48.5453H123.421V48.0131V47.4809H118.321H113.213L112.585 49.7898C112.246 51.067 111.586 53.5068 111.118 55.218C110.659 56.9292 110.136 58.845 109.966 59.4754C109.797 60.1058 109.257 62.0954 108.766 63.8966C106.808 71.1506 106.422 72.5588 106.397 72.5916C106.381 72.6079 106.051 71.5027 105.672 70.1435C104.907 67.4172 99.6381 48.5944 99.4447 47.9067L99.3239 47.4809H94.2161H89.1003V48.0131Z" fill="white"/>
<path d="M124.952 48.0049V48.5289L125.822 48.5617C126.813 48.6026 127.119 48.7172 127.667 49.2985C128.167 49.8143 128.328 50.2728 128.416 51.3536C128.513 52.5407 128.513 80.6561 128.416 81.7532C128.239 83.7346 127.49 84.5451 125.742 84.6352L124.952 84.6761V85.151V85.634H131.518H138.084V85.151V84.6679L137.286 84.6352C136.602 84.6106 136.424 84.5697 136.022 84.365C135.458 84.0702 134.926 83.448 134.725 82.834C134.596 82.4328 134.58 81.8105 134.555 74.925L134.531 67.4581H135.2C136.449 67.4581 137.407 67.8675 138.382 68.8008C139.131 69.5213 139.47 70.0617 139.824 71.1342C140.251 72.3869 140.662 74.7203 140.662 75.8665V76.3004H140.984H141.307V66.713V57.1338L141.009 57.1584C140.71 57.183 140.702 57.1911 140.678 57.5514C140.517 60.2942 139.687 62.8159 138.527 64.0849C137.778 64.9118 136.892 65.2721 135.369 65.3785L134.539 65.4358V57.5514V49.6752L137.061 49.7161C138.833 49.7488 139.744 49.798 140.138 49.8798C142.112 50.3056 143.57 51.5337 144.4 53.4413C144.811 54.3993 145.23 56.4297 145.351 58.1245C145.375 58.4029 145.383 58.4111 145.738 58.4111H146.1L146.124 52.9419L146.14 47.4809H135.546H124.952V48.0049Z" fill="white"/>
<path d="M181.467 29.812C180.992 31.8998 180.637 34.315 180.42 36.9022C180.283 38.6461 180.258 42.486 180.379 44.1317C181.064 53.0805 184.182 61.5462 189.829 69.799C190.329 70.5195 190.804 71.2155 190.893 71.3383L191.054 71.5593L191.545 70.757C194.244 66.3522 195.976 61.2924 196.42 56.4618C196.54 55.1273 196.468 51.7705 196.299 50.5915C195.678 46.4078 194.26 42.7808 191.9 39.3339C190.055 36.632 187.227 33.7419 184.287 31.5477C183.554 30.9991 181.991 29.9102 181.612 29.681C181.547 29.6482 181.499 29.6892 181.467 29.812Z" fill="white"/>
<path d="M24.0448 32.227C17.2614 36.8775 12.927 42.5104 11.1224 49.0111C9.10026 56.2815 10.4134 64.3952 14.8364 72.0258C15.2392 72.7054 15.5856 73.2867 15.6259 73.3112C15.6984 73.3522 16.5363 72.1814 17.6159 70.5275C25.0438 59.1553 27.7347 47.5538 25.8575 34.9944C25.7045 33.9791 25.3339 31.9569 25.2452 31.6539C25.2211 31.5802 25.1727 31.5147 25.1405 31.5147C25.1083 31.5147 24.6168 31.834 24.0448 32.227Z" fill="white"/>
<path d="M27.0501 61.3581C24.7138 63.3067 22.5627 68.1618 21.2657 74.3923C20.5487 77.8556 20.2828 80.5656 20.315 84.1189C20.3392 86.1739 20.3231 86.4605 20.1942 86.8453C19.8961 87.6968 19.4288 87.7132 18.6473 86.9108C18.0189 86.2722 17.5839 85.609 16.3513 83.423C13.0482 77.5445 10.0351 73.2789 6.8528 69.9712C5.41071 68.4729 4.12975 67.3266 2.85684 66.4015C1.93841 65.7301 0.536601 64.8377 0.407699 64.8377C0.286853 64.8377 0.246571 65.1488 0.117669 66.86C-0.027346 68.7676 -0.0354024 70.1267 0.077387 71.6414C0.464093 76.6766 2.17205 80.7212 5.59601 84.733C6.35331 85.6172 8.32712 87.6149 9.34223 88.5237C11.9364 90.8407 16.1418 93.9356 20.9031 97.0304C22.6353 98.1521 24.7057 99.4702 24.746 99.4702C24.7621 99.4702 24.7702 98.7252 24.7702 97.8082C24.7702 95.0327 25.1891 92.4618 26.5507 86.6979C26.7923 85.6827 27.2596 83.6932 27.598 82.2768C29.1448 75.7023 29.6926 71.9607 29.6201 68.3583C29.5799 66.2868 29.451 65.2552 29.0401 63.8143C28.7339 62.7499 27.8477 60.9078 27.6383 60.9078C27.606 60.9078 27.3402 61.1124 27.0501 61.3581Z" fill="white"/>
<path d="M178.252 63.1844C178.011 63.5856 177.157 66.1565 176.835 67.4582C176.287 69.6852 176.077 71.3882 176.077 73.7625C176.077 76.3825 176.295 78.0445 176.996 80.8855C177.471 82.7932 177.769 83.7429 179.026 87.3126C180.847 92.4624 181.346 94.3865 181.475 96.8017C181.507 97.3257 181.548 97.7515 181.564 97.7515C181.62 97.7515 184.287 95.8684 186.019 94.6075C195.219 87.9021 200.061 83.1043 202.881 77.8971C204.436 75.0234 205.378 71.8385 205.797 68.0314C205.934 66.836 206.063 63.1189 205.966 63.1189C205.854 63.1189 205.048 63.5692 204.315 64.0359C202.261 65.3541 200.166 67.1717 198.273 69.2922C195.155 72.7882 192.545 76.6936 189.797 81.9662C188.355 84.7336 187.517 85.7979 186.76 85.7979C186.027 85.7979 185.826 84.3733 186.091 80.9674C186.309 78.0854 186.019 74.9988 185.253 72.1742C184.142 68.0559 181.91 64.8874 179.131 63.471C178.526 63.1599 178.309 63.0944 178.252 63.1844Z" fill="white"/>
<path d="M32.4078 83.5533C32.15 83.9299 31.7794 84.7077 31.4652 85.5756C29.7975 90.1114 29.588 97.5209 30.9818 102.867C31.1993 103.711 31.4571 104.488 31.8116 105.348C32.158 106.191 32.2789 106.904 32.1339 107.215C31.8841 107.747 30.9012 107.477 29.7492 106.568C29.008 105.97 28.3635 105.332 27.2034 104.014C22.0312 98.1432 17.9546 96.211 10.1077 95.8998C8.7623 95.8507 4.72605 95.9817 4.31518 96.0963L4.10571 96.1537L4.50048 97.0788C6.40984 101.525 9.29402 104.734 13.6767 107.28C16.0694 108.664 19.2598 110.08 25.8177 112.651C30.4904 114.477 34.873 116.311 38.0553 117.76C38.8126 118.104 39.4652 118.382 39.5216 118.382C39.6263 118.382 39.7794 117.957 39.9647 117.179C40.0613 116.786 40.0452 116.663 39.8519 115.828C39.2476 113.2 38.9496 110.465 38.7481 105.856C38.7079 104.75 38.6273 102.982 38.587 101.926C38.3131 95.4823 37.7733 91.1839 37.0724 89.8085C36.6777 89.0388 34.9617 86.2388 34.8086 86.1241C34.7764 86.0996 34.6636 85.9522 34.5588 85.7966C34.4541 85.6411 34.3413 85.4937 34.3171 85.4692C34.293 85.4446 34.1641 85.2808 34.0352 85.0925C33.7371 84.675 33.2376 84.0609 32.8589 83.6352L32.5689 83.3159L32.4078 83.5533Z" fill="white"/>
<path d="M173.193 86.8371C170.019 90.5706 168.086 94.3695 167.296 98.4468C166.821 100.903 166.756 102.074 166.772 107.355C166.789 110.359 166.756 112.071 166.692 112.652C166.563 113.855 166.321 115.092 166.031 116.041C165.894 116.484 165.806 116.868 165.83 116.893C165.886 116.942 166.329 116.827 169.753 115.878C179.558 113.159 185.568 110.703 189.628 107.756C192.972 105.316 195.397 102.319 197.338 98.2094C198.152 96.4982 199.32 93.4689 199.207 93.3625C199.143 93.297 196.823 93.7145 195.84 93.9765C190.539 95.3684 186.035 98.0129 181.427 102.442C180.654 103.187 179.735 104.096 179.381 104.464C178.237 105.66 177.222 106.258 176.327 106.266C176.07 106.266 175.755 106.208 175.635 106.143C175.304 105.971 174.998 105.578 174.893 105.177C174.732 104.579 174.845 103.253 175.175 101.926C176.424 96.7848 176.48 92.3308 175.336 88.9822C175.054 88.1471 174.321 86.5997 174.031 86.2231L173.886 86.0266L173.193 86.8371Z" fill="white"/>
<path d="M42.8314 104.308C42.3883 106.126 42.4688 108.59 43.0489 110.932C43.3872 112.266 44.2009 114.526 44.8777 115.967C46.4245 119.266 48.8656 122.902 50.5171 124.351C51.9109 125.579 52.209 126.209 51.8062 127.118C51.5 127.781 51.2503 127.765 49.212 126.93C47.3026 126.152 46.1667 125.612 43.7417 124.318C40.8656 122.795 38.9885 121.845 37.9411 121.387C34.5333 119.913 31.488 119.127 27.8706 118.8C26.8394 118.702 23.0852 118.677 22.1184 118.767C21.498 118.816 21.498 118.816 21.5464 119.029C21.6511 119.488 22.3279 120.748 22.8193 121.412C25.0912 124.465 30.0217 127.306 37.1355 129.664C44.354 132.063 53.9169 133.946 61.3852 134.438C62.8354 134.536 65.7598 134.511 65.8646 134.405C65.8968 134.372 65.7759 134.061 65.5906 133.709C64.8897 132.424 63.9391 130.442 62.3923 127.102C57.7679 117.089 55.359 113.06 51.8384 109.384C50.4446 107.935 49.494 107.116 48.1244 106.191C46.6098 105.168 44.1526 103.989 43.21 103.833C42.9603 103.792 42.9603 103.792 42.8314 104.308Z" fill="white"/>
<path d="M162.107 104.866C158.49 107.273 155.783 110.032 153.366 113.765C151.465 116.696 150.063 119.775 147.848 125.874C146.067 130.77 145.068 133.047 143.884 134.848C143.707 135.126 143.578 135.372 143.594 135.396C143.618 135.413 144.335 135.282 145.189 135.102C147.654 134.569 150.732 133.963 153.423 133.489C156.54 132.94 159.94 132.31 161.64 131.958C162.752 131.728 163.767 131.524 163.896 131.499L164.13 131.458L164.081 132.392C164.025 133.39 163.88 134.004 163.501 134.758C162.027 137.73 158.595 139.441 152.754 140.12C150.546 140.374 149.088 140.44 145.455 140.432C141.37 140.432 140.597 140.399 131.195 139.875C130.003 139.809 128.383 139.719 127.61 139.67C126.837 139.629 124.71 139.547 122.897 139.498C115.123 139.261 110.136 139.867 107.106 141.406C106.204 141.872 105.85 142.134 104.931 143.027C104.085 143.854 103.658 144.124 102.998 144.247C102.232 144.394 101.274 144.091 100.581 143.494C99.9444 142.937 98.2686 142.085 96.5687 141.439C94.2243 140.546 91.2837 139.94 87.5698 139.58C87.0622 139.531 85.0562 139.474 83.1146 139.449C79.6101 139.408 77.5234 139.457 72.9958 139.719C66.3815 140.088 62.2647 140.178 59.598 139.998C56.1821 139.76 53.1368 139.187 50.2284 138.221C48.8427 137.762 47.8115 137.361 45.5396 136.387C41.5356 134.676 39.6585 134.054 37.1529 133.611C35.5658 133.333 32.303 133.063 32.303 133.21C32.303 133.243 33.0361 133.996 33.9304 134.88C40.7783 141.676 47.4651 145.721 55.2637 147.808C60.5245 149.208 67.026 149.495 73.31 148.594C75.6544 148.25 76.3714 148.046 79.8759 146.654C80.8991 146.245 82.0753 145.802 82.4942 145.663C84.315 145.057 86.0954 144.746 87.8195 144.73C88.7702 144.722 88.9877 144.746 89.6241 144.943C90.8004 145.303 91.5013 145.786 91.8477 146.474C92.2666 147.317 91.743 148.365 90.4459 149.249C90.2284 149.397 89.6644 149.7 89.1971 149.921C86.0954 151.411 83.4529 153.343 80.7541 156.078C79.3925 157.461 78.0632 158.96 78.0632 159.107C78.0632 159.131 80.1257 159.156 82.6554 159.156H87.2475L87.5375 158.558C88.3673 156.896 89.7128 155.496 91.6463 154.301C92.0491 154.047 93.2092 153.392 94.2243 152.844C96.3834 151.673 97.1166 151.222 98.0028 150.518C98.6312 150.027 99.3724 149.266 99.6302 148.864L99.751 148.676H102.675H105.6L106.341 149.413C106.744 149.814 107.751 150.707 108.581 151.394C110.692 153.138 111.618 153.973 112.23 154.669C113.286 155.865 113.922 156.88 114.373 158.092L114.631 158.788L120.593 158.812C126.402 158.829 126.563 158.829 126.563 158.673C126.563 158.354 126.152 157.085 125.846 156.471C124.943 154.653 123.372 153.294 120.835 152.156C120.464 151.992 119.433 151.558 118.547 151.198C115.799 150.076 114.559 149.356 113.705 148.398C113.108 147.726 112.665 146.818 112.673 146.261C112.69 144.722 114.47 144.149 116.742 144.951C120.311 146.204 124.516 147.317 128.013 147.931C132.935 148.791 138.373 148.987 142.917 148.463C152.383 147.383 160.738 143.346 166.869 136.895C168.407 135.273 170.478 132.604 170.841 131.769C170.897 131.63 171.042 131.049 171.155 130.459C171.268 129.878 171.388 129.379 171.421 129.346C171.453 129.313 171.856 129.133 172.323 128.945C173.491 128.478 175.408 127.512 176.496 126.84C179.485 124.998 182.208 122.247 183.948 119.324C184.198 118.899 184.407 118.506 184.407 118.457C184.407 118.301 180.959 118.424 179.654 118.62C174.764 119.365 169.664 121.126 164.387 123.901C162.913 124.679 160.98 125.801 159.956 126.472C159.263 126.931 158.289 127.43 157.862 127.545C156.758 127.848 156.138 127.373 156.234 126.292C156.315 125.309 156.476 124.982 157.789 123.033C160.544 118.948 162.389 114.003 163.018 108.951C163.171 107.748 163.268 104.857 163.171 104.481L163.098 104.211L162.107 104.866Z" fill="white"/>
<g filter="url(#filter0_d)">
<path d="M317.432 115.888L316.28 119.44C314.616 119.568 313.368 119.632 312.536 119.632C308.696 119.632 305.56 118 303.128 114.736C300.76 111.536 299.576 107.344 299.576 102.16C299.576 99.024 300.28 93.104 301.688 84.4C303.16 75.632 304.856 67.632 306.776 60.4C307.16 58.8 307.352 57.744 307.352 57.232C307.352 56.72 307.128 56.464 306.68 56.464C306.232 56.464 304.792 58.864 302.36 63.664C299.992 68.4 297.144 74.256 293.816 81.232C290.488 88.144 288.568 92.112 288.056 93.136C287.608 94.096 287.224 94.896 286.904 95.536C286.648 96.112 286.072 97.2 285.176 98.8C284.344 100.336 283.544 101.712 282.776 102.928C280.664 106.128 279 107.728 277.784 107.728C276.952 107.728 276.024 107.504 275 107.056C274.04 106.608 273.4 106.128 273.08 105.616C272.376 104.528 272.024 101.136 272.024 95.44C272.024 83.536 272.984 72.176 274.904 61.36C275.544 57.776 275.864 55.888 275.864 55.696C275.864 55.056 275.608 54.736 275.096 54.736C274.072 54.736 272.44 57.936 270.2 64.336L267.416 72.304C263.32 83.888 259.16 92.912 254.936 99.376C250.776 105.84 245.976 110.384 240.536 113.008L238.04 107.728C244.248 103.12 249.016 98.416 252.344 93.616C255.736 88.816 259.416 81.072 263.384 70.384L266.648 61.648C268.888 55.568 270.84 51.248 272.504 48.688C274.168 46.064 276.024 44.752 278.072 44.752C281.464 44.752 283.16 46.8 283.16 50.896C283.16 51.216 282.552 57.712 281.336 70.384C280.12 82.992 279.512 91.312 279.512 95.344C279.512 96.496 279.704 97.104 280.088 97.168C280.408 97.168 280.76 96.848 281.144 96.208C286.328 87.568 291.288 78.16 296.024 67.984C296.6 66.704 297.592 64.496 299 61.36C300.408 58.224 301.784 55.44 303.128 53.008C304.472 50.576 305.496 49.104 306.2 48.592C306.904 48.016 308.024 47.728 309.56 47.728C311.096 47.728 312.408 48.304 313.496 49.456C314.648 50.544 315.224 51.856 315.224 53.392C315.224 54.928 315 56.688 314.552 58.672C309.56 83.056 307.064 97.648 307.064 102.448C307.064 107.184 307.832 110.416 309.368 112.144C310.904 113.936 313.592 115.184 317.432 115.888ZM344.758 77.488C346.422 80.24 347.254 83.28 347.254 86.608C347.254 91.792 345.462 96.432 341.878 100.528C338.294 104.56 334.07 106.576 329.206 106.576C325.494 106.576 322.582 105.52 320.47 103.408C318.422 101.232 317.398 98.256 317.398 94.48C317.398 88.4 319.766 82.96 324.502 78.16C329.238 73.296 334.55 70.864 340.438 70.864C341.526 70.864 342.294 70.896 342.742 70.96L343.03 74.128C337.91 74.128 333.654 75.6 330.262 78.544C326.87 81.488 325.174 85.264 325.174 89.872C325.174 92.624 325.846 94.864 327.19 96.592C328.534 98.256 330.486 99.088 333.046 99.088C335.67 99.088 337.75 97.936 339.286 95.632C340.822 93.328 341.59 90.64 341.59 87.568C341.59 84.432 340.982 81.584 339.766 79.024L344.758 77.488ZM366.075 79.6C369.147 76.464 371.835 74.32 374.139 73.168C376.507 71.952 378.715 71.344 380.763 71.344C382.875 71.344 384.603 72.08 385.947 73.552C387.355 74.96 388.059 76.816 388.059 79.12C388.059 85.072 385.563 91.344 380.571 97.936C375.579 104.464 370.203 107.728 364.443 107.728C362.715 107.728 361.083 107.408 359.547 106.768L361.851 102.544C362.875 102.8 363.675 102.928 364.251 102.928C368.155 102.928 371.707 100.752 374.907 96.4C378.107 92.048 379.707 87.76 379.707 83.536C379.707 82.192 379.259 81.104 378.363 80.272C377.531 79.376 376.443 78.928 375.099 78.928C372.155 78.928 368.699 81.296 364.731 86.032C360.827 90.768 357.403 96.944 354.459 104.56L348.603 102.16C350.523 92.368 354.363 80.432 360.123 66.352C365.883 52.272 370.683 42.32 374.523 36.496L379.419 38.224C375.195 46.096 370.683 55.856 365.883 67.504C361.147 79.152 358.363 87.056 357.531 91.216C360.155 86.608 363.003 82.736 366.075 79.6ZM410.107 65.296C406.523 65.296 404.731 63.856 404.731 60.976C404.731 59.376 405.179 58.032 406.075 56.944C406.971 55.856 408.123 55.312 409.531 55.312C410.939 55.312 412.091 55.728 412.987 56.56C413.883 57.392 414.331 58.48 414.331 59.824C414.331 61.168 413.947 62.416 413.179 63.568C412.411 64.72 411.387 65.296 410.107 65.296ZM408.859 93.616L410.779 95.248C409.243 98.192 407.195 100.72 404.635 102.832C402.139 104.88 399.867 105.904 397.819 105.904C394.235 105.904 392.443 103.408 392.443 98.416C392.443 92.208 395.003 84.112 400.123 74.128C401.275 71.952 401.947 70.672 402.139 70.288L406.267 72.784C404.923 75.216 403.259 79.088 401.275 84.4C399.355 89.712 398.395 93.136 398.395 94.672C398.395 96.144 398.715 97.2 399.355 97.84C399.995 98.48 400.763 98.8 401.659 98.8C403.387 98.8 405.787 97.072 408.859 93.616ZM431.186 96.784L433.202 98.416C431.026 101.808 429.138 104.272 427.538 105.808C426.002 107.28 424.274 108.016 422.354 108.016C420.434 108.016 418.866 107.248 417.65 105.712C416.434 104.176 415.826 102.256 415.826 99.952C415.826 95.472 418.77 85.84 424.658 71.056C430.546 56.208 436.594 43.152 442.802 31.888L447.026 34.192C440.754 46.352 435.09 58.448 430.034 70.48C424.978 82.448 422.45 91.056 422.45 96.304C422.45 99.312 423.57 100.816 425.81 100.816C427.602 100.816 429.394 99.472 431.186 96.784ZM469.153 94.672L471.361 96.4C469.377 99.152 466.657 101.456 463.201 103.312C459.745 105.104 456.385 106 453.121 106C449.857 106 447.233 105.04 445.249 103.12C443.265 101.2 442.273 98.672 442.273 95.536C442.273 89.648 445.377 83.856 451.585 78.16C457.857 72.464 464.193 69.616 470.593 69.616C474.817 69.616 476.929 71.28 476.929 74.608C476.929 78.064 474.689 81.552 470.209 85.072C465.793 88.592 459.553 91.792 451.489 94.672C452.065 96.144 452.961 97.296 454.177 98.128C455.393 98.96 456.641 99.376 457.921 99.376C460.673 99.376 464.417 97.808 469.153 94.672ZM451.009 91.792C456.193 90 460.641 87.76 464.353 85.072C468.065 82.384 469.921 79.92 469.921 77.68C469.921 76.848 469.601 76.112 468.961 75.472C468.321 74.832 467.585 74.512 466.753 74.512C463.745 74.512 460.481 76.4 456.961 80.176C453.505 83.888 451.521 87.76 451.009 91.792Z" fill="white"/>
</g>
<defs>
<filter id="filter0_d" x="234.04" y="31.8882" width="246.889" height="95.744" filterUnits="userSpaceOnUse" color-interpolation-filters="sRGB">
<feFlood flood-opacity="0" result="BackgroundImageFix"/>
<feColorMatrix in="SourceAlpha" type="matrix" values="0 0 0 0 0 0 0 0 0 0 0 0 0 0 0 0 0 0 127 0"/>
<feOffset dy="4"/>
<feGaussianBlur stdDeviation="2"/>
<feColorMatrix type="matrix" values="0 0 0 0 0 0 0 0 0 0 0 0 0 0 0 0 0 0 0.5 0"/>
<feBlend mode="normal" in2="BackgroundImageFix" result="effect1_dropShadow"/>
<feBlend mode="normal" in="SourceGraphic" in2="effect1_dropShadow" result="shape"/>
</filter>
</defs>
</svg>
