<svg width="22" height="23" viewBox="0 0 22 23" fill="none" xmlns="http://www.w3.org/2000/svg">
<path d="M16.5166 7.86015C16.5166 6.41206 15.9529 5.02329 14.9496 3.99934C13.9463 2.97539 12.5855 2.40015 11.1666 2.40015C9.74769 2.40015 8.3869 2.97539 7.38358 3.99934C6.38026 5.02329 5.8166 6.41206 5.8166 7.86015C5.8166 14.2301 3.1416 16.0501 3.1416 16.0501H19.1916C19.1916 16.0501 16.5166 14.2301 16.5166 7.86015Z" stroke="#C9CED6" stroke-width="2" stroke-linecap="round" stroke-linejoin="round"/>
<path d="M12.7092 19.6902C12.5524 19.966 12.3274 20.1949 12.0567 20.3541C11.786 20.5132 11.479 20.597 11.1666 20.597C10.8542 20.597 10.5472 20.5132 10.2765 20.3541C10.0058 20.1949 9.78079 19.966 9.62402 19.6902" stroke="#C9CED6" stroke-width="2" stroke-linecap="round" stroke-linejoin="round"/>
<ellipse cx="16.5168" cy="4.21999" rx="2.675" ry="2.73" fill="#6F52ED"/>
</svg>
