<svg width="46" height="35" viewBox="0 0 46 35" fill="none" xmlns="http://www.w3.org/2000/svg">
<mask id="path-1-inside-1_2032_11" fill="white">
<path d="M0 35C0.5 27.5 11.5 28.4375 17.25 24.0625C20.125 21.875 11.5 21.875 11.5 10.9375C11.5 3.64656 15.3324 0 23 0C30.6676 0 34.5 3.64656 34.5 10.9375C34.5 21.875 25.875 21.875 28.75 24.0625C34.5 28.4375 46 28.4375 46 35"/>
</mask>
<path d="M0 35C0.5 27.5 11.5 28.4375 17.25 24.0625C20.125 21.875 11.5 21.875 11.5 10.9375C11.5 3.64656 15.3324 0 23 0C30.6676 0 34.5 3.64656 34.5 10.9375C34.5 21.875 25.875 21.875 28.75 24.0625C34.5 28.4375 46 28.4375 46 35" fill="white" fill-opacity="0.2"/>
<path d="M-1.99557 34.867L-2.12861 36.8625L1.86253 37.1286L1.99557 35.133L-1.99557 34.867ZM44 35V37H48V35H44ZM1.99557 35.133C2.08258 33.8278 2.59044 32.9635 3.4094 32.2519C4.30687 31.4722 5.61394 30.8499 7.32364 30.2447C8.16405 29.9472 9.05114 29.6703 9.99096 29.378C10.918 29.0897 11.8961 28.7864 12.858 28.4509C14.7676 27.7848 16.7706 26.9404 18.461 25.6542L16.039 22.4708C14.8544 23.3721 13.3262 24.0512 11.5405 24.6741C10.6547 24.9831 9.74406 25.2658 8.80298 25.5585C7.87464 25.8472 6.91408 26.1465 5.98886 26.474C4.16731 27.1188 2.27125 27.9419 0.785912 29.2324C-0.77794 30.5912 -1.83258 32.4222 -1.99557 34.867L1.99557 35.133ZM18.461 25.6542C18.9312 25.2964 19.6292 24.6576 19.8 23.655C19.9873 22.5551 19.4337 21.7405 19.0922 21.3362C18.7505 20.9318 18.2972 20.5602 17.9617 20.2853C17.5767 19.9698 17.2014 19.6693 16.8017 19.3043C15.3374 17.9674 13.5 15.7417 13.5 10.9375H9.5C9.5 17.0708 11.9751 20.3139 14.1046 22.2582C14.6033 22.7136 15.0815 23.0966 15.4265 23.3793C15.821 23.7025 15.9741 23.8436 16.0367 23.9177C16.0995 23.992 15.748 23.6217 15.8568 22.9832C15.949 22.442 16.2875 22.2817 16.039 22.4708L18.461 25.6542ZM13.5 10.9375C13.5 7.62654 14.3652 5.5039 15.753 4.18378C17.1596 2.84585 19.4502 2 23 2V-2C18.8822 -2 15.4227 -1.02257 12.9962 1.28551C10.551 3.61141 9.5 6.95752 9.5 10.9375H13.5ZM23 2C26.5498 2 28.8404 2.84585 30.247 4.18378C31.6348 5.5039 32.5 7.62654 32.5 10.9375H36.5C36.5 6.95752 35.449 3.61141 33.0038 1.28551C30.5773 -1.02257 27.1178 -2 23 -2V2ZM32.5 10.9375C32.5 15.7417 30.6626 17.9674 29.1983 19.3043C28.7986 19.6693 28.4233 19.9698 28.0383 20.2853C27.7028 20.5602 27.2495 20.9318 26.9078 21.3362C26.5663 21.7405 26.0127 22.5551 26.2 23.655C26.3708 24.6576 27.0688 25.2964 27.539 25.6542L29.961 22.4708C29.7125 22.2817 30.051 22.442 30.1432 22.9832C30.252 23.6217 29.9005 23.992 29.9633 23.9177C30.0259 23.8436 30.179 23.7025 30.5735 23.3793C30.9185 23.0966 31.3967 22.7136 31.8954 22.2582C34.0249 20.3139 36.5 17.0708 36.5 10.9375H32.5ZM27.539 25.6542C29.2091 26.9249 31.2222 27.8264 33.1599 28.5636C34.1376 28.9356 35.1331 29.2789 36.0832 29.6063C37.0445 29.9376 37.9567 30.2518 38.8201 30.5802C40.582 31.2505 41.9264 31.9049 42.8192 32.6626C43.6312 33.3518 44 34.0573 44 35H48C48 32.6614 46.9313 30.9061 45.4074 29.6128C43.9642 28.3881 42.0742 27.5385 40.2424 26.8416C39.3089 26.4865 38.3345 26.1513 37.3865 25.8246C36.4275 25.4941 35.4913 25.1709 34.5822 24.825C32.7466 24.1267 31.1659 23.3876 29.961 22.4708L27.539 25.6542Z" fill="white" mask="url(#path-1-inside-1_2032_11)"/>
</svg>
